<svg width="205" height="48" viewBox="0 0 205 48" fill="none" xmlns="http://www.w3.org/2000/svg">
<path d="M27.005 47.65C23.2783 47.65 19.8117 47.065 16.605 45.895C13.3983 44.725 10.6033 43.1 8.22 41.02C5.83667 38.94 3.995 36.47 2.695 33.61C1.395 30.7067 0.745 27.5 0.745 23.99C0.745 20.5233 1.41667 17.36 2.76 14.5C4.10333 11.5967 5.945 9.105 8.285 7.025C10.6683 4.90166 13.4633 3.255 16.67 2.085C19.92 0.914997 23.4083 0.329996 27.135 0.329996C29.605 0.329996 31.9883 0.63333 34.285 1.24C36.5817 1.80333 38.7267 2.605 40.72 3.645C42.7567 4.64166 44.5333 5.855 46.05 7.285L38.51 16.71C37.6433 15.8433 36.6467 15.0633 35.52 14.37C34.4367 13.6767 33.1583 13.1133 31.685 12.68C30.255 12.2467 28.63 12.03 26.81 12.03C25.1633 12.03 23.56 12.29 22 12.81C20.44 13.33 19.0533 14.11 17.84 15.15C16.67 16.19 15.7383 17.4683 15.045 18.985C14.3517 20.4583 14.005 22.17 14.005 24.12C14.005 26.0267 14.3517 27.7167 15.045 29.19C15.7817 30.6633 16.8 31.8983 18.1 32.895C19.4 33.8917 20.895 34.6717 22.585 35.235C24.275 35.7983 26.1167 36.08 28.11 36.08C29.93 36.08 31.555 35.82 32.985 35.3C34.4583 34.78 35.7583 34.1517 36.885 33.415C38.055 32.6783 39.095 31.92 40.005 31.14L46.05 40.89C44.88 42.0167 43.2983 43.1 41.305 44.14C39.3117 45.18 37.08 46.025 34.61 46.675C32.14 47.325 29.605 47.65 27.005 47.65ZM72.6523 47.65C68.7956 47.65 65.2639 47.065 62.0573 45.895C58.8939 44.725 56.1206 43.0783 53.7373 40.955C51.3973 38.7883 49.5773 36.275 48.2773 33.415C47.0206 30.555 46.3923 27.4133 46.3923 23.99C46.3923 20.5667 47.0206 17.425 48.2773 14.565C49.5773 11.705 51.3973 9.21333 53.7373 7.09C56.1206 4.92333 58.8939 3.255 62.0573 2.085C65.2639 0.914997 68.7956 0.329996 72.6523 0.329996C76.4656 0.329996 79.9539 0.914997 83.1173 2.085C86.3239 3.255 89.0973 4.92333 91.4373 7.09C93.8206 9.21333 95.6406 11.705 96.8973 14.565C98.1973 17.425 98.8473 20.545 98.8473 23.925C98.8473 27.3483 98.1973 30.5117 96.8973 33.415C95.6406 36.275 93.8206 38.7883 91.4373 40.955C89.0973 43.0783 86.3239 44.725 83.1173 45.895C79.9539 47.065 76.4656 47.65 72.6523 47.65ZM72.6523 35.69C74.5156 35.69 76.2489 35.4083 77.8523 34.845C79.4556 34.2817 80.8423 33.48 82.0123 32.44C83.2256 31.3567 84.1356 30.1 84.7423 28.67C85.3923 27.24 85.7173 25.68 85.7173 23.99C85.7173 22.3 85.3923 20.74 84.7423 19.31C84.1356 17.88 83.2256 16.645 82.0123 15.605C80.8423 14.5217 79.4556 13.6983 77.8523 13.135C76.2489 12.5717 74.5156 12.29 72.6523 12.29C70.7456 12.29 68.9906 12.5717 67.3873 13.135C65.7839 13.6983 64.3756 14.5217 63.1623 15.605C61.9923 16.6883 61.0823 17.945 60.4323 19.375C59.8256 20.7617 59.5223 22.3 59.5223 23.99C59.5223 25.68 59.8256 27.24 60.4323 28.67C61.0823 30.0567 61.9923 31.2917 63.1623 32.375C64.3756 33.4583 65.7839 34.2817 67.3873 34.845C68.9906 35.4083 70.7456 35.69 72.6523 35.69ZM103.405 47V1.5H125.115C128.885 1.5 132.287 2.085 135.32 3.255C138.354 4.425 140.975 6.05 143.185 8.13C145.395 10.1667 147.085 12.5717 148.255 15.345C149.425 18.075 150.01 21.0433 150.01 24.25C150.01 27.4567 149.425 30.4467 148.255 33.22C147.085 35.9933 145.395 38.3983 143.185 40.435C140.975 42.4717 138.354 44.075 135.32 45.245C132.287 46.415 128.885 47 125.115 47H103.405ZM116.275 38.81L114.26 35.885H124.79C126.74 35.885 128.452 35.5817 129.925 34.975C131.442 34.3683 132.699 33.545 133.695 32.505C134.692 31.4217 135.472 30.1867 136.035 28.8C136.599 27.4133 136.88 25.8967 136.88 24.25C136.88 22.6467 136.599 21.1517 136.035 19.765C135.472 18.335 134.67 17.1 133.63 16.06C132.634 14.9767 131.399 14.1317 129.925 13.525C128.452 12.9183 126.74 12.615 124.79 12.615H114.065L116.275 9.82V38.81Z" fill="white"/>
<path d="M177.975 47.65C174.118 47.65 170.587 47.065 167.38 45.895C164.217 44.725 161.443 43.0783 159.06 40.955C156.72 38.7883 154.9 36.275 153.6 33.415C152.343 30.555 151.715 27.4133 151.715 23.99C151.715 20.5667 152.343 17.425 153.6 14.565C154.9 11.705 156.72 9.21333 159.06 7.09C161.443 4.92333 164.217 3.255 167.38 2.085C170.587 0.914997 174.118 0.329996 177.975 0.329996C181.788 0.329996 185.277 0.914997 188.44 2.085C191.647 3.255 194.42 4.92333 196.76 7.09C199.143 9.21333 200.963 11.705 202.22 14.565C203.52 17.425 204.17 20.545 204.17 23.925C204.17 27.3483 203.52 30.5117 202.22 33.415C200.963 36.275 199.143 38.7883 196.76 40.955C194.42 43.0783 191.647 44.725 188.44 45.895C185.277 47.065 181.788 47.65 177.975 47.65ZM177.975 35.69C179.838 35.69 181.572 35.4083 183.175 34.845C184.778 34.2817 186.165 33.48 187.335 32.44C188.548 31.3567 189.458 30.1 190.065 28.67C190.715 27.24 191.04 25.68 191.04 23.99C191.04 22.3 190.715 20.74 190.065 19.31C189.458 17.88 188.548 16.645 187.335 15.605C186.165 14.5217 184.778 13.6983 183.175 13.135C181.572 12.5717 179.838 12.29 177.975 12.29C176.068 12.29 174.313 12.5717 172.71 13.135C171.107 13.6983 169.698 14.5217 168.485 15.605C167.315 16.6883 166.405 17.945 165.755 19.375C165.148 20.7617 164.845 22.3 164.845 23.99C164.845 25.68 165.148 27.24 165.755 28.67C166.405 30.0567 167.315 31.2917 168.485 32.375C169.698 33.4583 171.107 34.2817 172.71 34.845C174.313 35.4083 176.068 35.69 177.975 35.69Z" fill="#00B764"/>
</svg>
