<svg width="122" height="49" viewBox="0 0 122 49" fill="none" xmlns="http://www.w3.org/2000/svg">
<g clip-path="url(#clip0_114_173)">
<path d="M109.332 27.6711C106.165 30.842 106.165 40.3529 106.165 40.3529C106.165 40.3529 106.165 30.842 102.998 27.6711C101.996 26.6682 100.36 25.9825 98.5926 25.5137C97.818 25.3092 97.0063 25.281 96.2229 25.4485C93.4534 26.0354 90.7368 26.9872 89.1962 28.5295C85.1732 32.557 85.1732 44.6413 85.1732 44.6413C85.1732 44.6413 85.1732 32.557 81.1502 28.5295C79.6766 27.0542 77.1237 26.12 74.481 25.5278C73.7944 25.3744 73.0849 25.3674 72.3947 25.4996C68.7696 26.1976 65.0952 27.3855 63.081 29.402C58.2235 34.2649 58.1865 48.7746 58.1865 49.002C58.1865 48.7763 58.1478 34.2649 53.292 29.402C51.3289 27.4367 47.7901 26.2593 44.2566 25.5542C43.547 25.4132 42.8146 25.4203 42.1104 25.5842C39.5557 26.1799 37.1173 27.1018 35.6894 28.5295C31.6664 32.557 31.6664 44.6413 31.6664 44.6413C31.6664 44.6413 31.6664 32.557 27.6434 28.5295C26.8582 27.7434 25.7648 27.1106 24.5166 26.6012C22.726 25.8715 20.6573 26.194 19.2118 27.4807C19.1414 27.5442 19.0727 27.6076 19.0076 27.6729C15.8402 30.8438 15.8402 40.3547 15.8402 40.3547C15.8402 40.3547 15.8402 30.8438 12.6729 27.6729C9.50027 24.5002 0 24.5002 0 24.5002C0 24.5002 9.50027 24.5002 12.6676 21.3293C15.835 18.1584 15.835 8.64746 15.835 8.64746C15.835 8.64746 15.835 18.1584 19.0023 21.3293C19.0675 21.3945 19.1361 21.458 19.2065 21.5214C20.652 22.8063 22.7207 23.1307 24.5113 22.4009C25.7613 21.8916 26.8529 21.2588 27.6381 20.4727C31.6611 16.4452 31.6611 4.36084 31.6611 4.36084C31.6611 4.36084 31.6611 16.4452 35.6841 20.4727C37.112 21.9021 39.5504 22.824 42.1051 23.418C42.8093 23.5819 43.5417 23.5889 44.2513 23.4479C47.7848 22.7429 51.3237 21.5655 53.2868 19.6002C58.1443 14.7372 58.1813 0.227562 58.1813 0.00018692C58.1813 0.2258 58.22 14.7372 63.0758 19.6002C65.0899 21.6166 68.7643 22.8046 72.3894 23.5026C73.0796 23.6348 73.7909 23.6295 74.4757 23.4744C77.1202 22.8821 79.6731 21.948 81.145 20.4727C85.168 16.4452 85.168 4.36084 85.168 4.36084C85.168 4.36084 85.168 16.4452 89.191 20.4727C90.7297 22.0132 93.4481 22.965 96.2176 23.5537C97.001 23.7194 97.8127 23.6929 98.5874 23.4885C100.355 23.0196 101.991 22.334 102.992 21.3311C106.16 18.1602 106.16 8.64922 106.16 8.64922C106.16 8.64922 106.16 18.1602 109.327 21.3311C112.494 24.502 121.995 24.502 121.995 24.502C121.995 24.502 112.494 24.502 109.327 27.6729L109.332 27.6711ZM59.8186 23.3845C58.1584 21.7223 58.1584 16.736 58.1584 16.736C58.1584 16.736 58.1584 21.7223 56.4981 23.3845C54.8378 25.0466 49.8571 25.0466 49.8571 25.0466C49.8571 25.0466 54.8378 25.0466 56.4981 26.7087C58.1584 28.3708 58.1584 33.3572 58.1584 33.3572C58.1584 33.3572 58.1584 28.3708 59.8186 26.7087C61.4789 25.0466 66.4597 25.0466 66.4597 25.0466C66.4597 25.0466 61.4789 25.0466 59.8186 23.3845Z" fill="white"/>
</g>
<defs>
<clipPath id="clip0_114_173">
<rect width="122" height="49" fill="white" transform="matrix(1 0 0 -1 0 49)"/>
</clipPath>
</defs>
</svg>
