<svg width="239" height="137" viewBox="0 0 239 137" fill="none" xmlns="http://www.w3.org/2000/svg">
<g clip-path="url(#clip0_114_219)">
<path d="M238.161 73.3971C242.787 70.8503 177.91 118.434 109.573 100.208C78.4732 91.9134 56.6707 73.6434 43.7586 60.2631L31.7013 49.1912L24.5263 55.7883C23.1589 57.0468 20.9513 56.0792 20.9467 54.22L20.9319 36.5031L13.6897 25.538C12.9153 24.3651 13.4668 22.7746 14.8011 22.3318L22.365 19.8278L24.2284 9.82816C24.6025 7.82592 27.3017 7.43252 28.2249 9.24682L33.1535 18.9024L45.2015 20.4397C46.6437 20.6244 47.4828 22.1675 46.8557 23.4826L40.2945 37.1587L51.3178 60.5407C65.2952 73.0881 87.1358 89.3831 111.824 94.8358C183.705 110.716 229.658 78.0782 238.161 73.3971Z" fill="white"/>
</g>
<defs>
<clipPath id="clip0_114_219">
<rect width="229" height="67" fill="white" transform="translate(21.446) rotate(18.6683)"/>
</clipPath>
</defs>
</svg>
