<svg width="37" height="23" viewBox="0 0 37 23" fill="none" xmlns="http://www.w3.org/2000/svg">
<path d="M0.300403 11.1699L13.2983 9.82515C13.538 9.80066 13.6735 9.54078 13.5561 9.33228L8.56714 0.497723C8.38223 0.17034 8.80023 -0.16242 9.08272 0.087299L17.8488 7.84711C17.9759 7.95943 18.168 7.95943 18.2951 7.84711L27.0605 0.087299C27.343 -0.16242 27.761 0.17034 27.5761 0.497723L22.5872 9.33169C22.4697 9.54018 22.6052 9.80006 22.8449 9.82455L35.8428 11.1693C36.2434 11.2106 36.2434 11.7888 35.8428 11.8307L22.8449 13.1754C22.6052 13.1999 22.4697 13.4598 22.5872 13.6683L27.5761 22.5023C27.761 22.8297 27.343 23.1624 27.0605 22.9127L18.2945 15.1529C18.1674 15.0406 17.9753 15.0406 17.8482 15.1529L9.08212 22.9127C8.79963 23.1624 8.38163 22.8297 8.56654 22.5023L13.5555 13.6683C13.6729 13.4598 13.5374 13.1999 13.2977 13.1754L0.300403 11.8307C-0.100134 11.7894 -0.100134 11.2112 0.300403 11.1693V11.1699Z" fill="white"/>
</svg>
