<svg width="140" height="130" viewBox="0 0 140 130" fill="none" xmlns="http://www.w3.org/2000/svg">
<g clip-path="url(#clip0_117_376)">
<path d="M0.164411 32.5045C-3.21924 32.8786 47.1707 20.5674 83.3643 48.3018C99.8361 60.9236 108.307 77.1894 112.691 88.3472L117.137 97.9191L123.039 95.7628C124.164 95.3511 125.24 96.4726 124.783 97.581L120.416 108.135L122.02 116.454C122.192 117.344 121.47 118.155 120.566 118.089L115.443 117.712L111.864 123.207C111.146 124.307 109.442 123.874 109.34 122.566L108.79 115.598L101.995 111.706C101.182 111.24 101.063 110.114 101.761 109.486L109.047 102.962L108.258 86.3146C103.034 75.3897 94.0523 60.2906 80.6968 50.945C41.8127 23.7316 6.38467 31.8173 0.164411 32.5045Z" fill="white"/>
</g>
<defs>
<clipPath id="clip0_117_376">
<rect width="147.641" height="43.1963" fill="white" transform="translate(111.093 129.746) rotate(-138.803)"/>
</clipPath>
</defs>
</svg>
