<svg width="55" height="35" viewBox="0 0 55 35" fill="none" xmlns="http://www.w3.org/2000/svg">
<path d="M0.457127 16.9974L20.2362 14.951C20.6009 14.9138 20.8072 14.5183 20.6284 14.201L13.0367 0.757389C12.7553 0.259207 13.3914 -0.247156 13.8213 0.132844L27.1606 11.941C27.354 12.1119 27.6464 12.1119 27.8398 11.941L41.1783 0.132844C41.6081 -0.247156 42.2442 0.259207 41.9628 0.757389L34.3711 14.2001C34.1924 14.5174 34.3986 14.9128 34.7634 14.9501L54.5424 16.9965C55.1519 17.0592 55.1519 17.9392 54.5424 18.0028L34.7634 20.0492C34.3986 20.0865 34.1924 20.4819 34.3711 20.7992L41.9628 34.2419C42.2442 34.7401 41.6081 35.2465 41.1783 34.8665L27.8389 23.0583C27.6455 22.8874 27.3531 22.8874 27.1597 23.0583L13.8203 34.8665C13.3905 35.2465 12.7544 34.7401 13.0358 34.2419L20.6275 20.7992C20.8062 20.4819 20.6 20.0865 20.2352 20.0492L0.457127 18.0028C-0.152376 17.9401 -0.152376 17.0601 0.457127 16.9965V16.9974Z" fill="white"/>
</svg>
