<svg width="465" height="465" viewBox="0 0 465 465" fill="none" xmlns="http://www.w3.org/2000/svg">
<path d="M335.063 329.551L292.458 269.814L364.825 281.927C379.664 284.411 393.71 274.394 396.194 259.555C398.678 244.715 388.66 230.67 373.821 228.186L301.453 216.072L361.19 173.467C373.441 164.729 376.289 147.717 367.551 135.466C358.813 123.216 341.802 120.368 329.551 129.106L269.814 171.712L281.927 99.3439C284.411 84.5047 274.394 70.4592 259.555 67.9752C244.715 65.4913 230.67 75.509 228.186 90.3482L216.072 162.716L173.467 102.979C164.729 90.728 147.717 87.8805 135.466 96.6181C123.216 105.356 120.368 122.367 129.106 134.618L171.712 194.355L99.3439 182.242C84.5047 179.758 70.4592 189.775 67.9753 204.615C65.4914 219.454 75.509 233.499 90.3482 235.983L162.716 248.097L102.979 290.703C90.7281 299.44 87.8805 316.452 96.6182 328.703C105.356 340.954 122.367 343.801 134.618 335.063L194.355 292.458L182.242 364.825C179.758 379.664 189.775 393.71 204.615 396.194C219.454 398.678 233.499 388.66 235.983 373.821L248.097 301.453L290.703 361.19C299.44 373.441 316.452 376.289 328.703 367.551C340.954 358.813 343.801 341.802 335.063 329.551Z" fill="white"/>
</svg>
