<svg width="523" height="69" viewBox="0 0 523 69" fill="none" xmlns="http://www.w3.org/2000/svg">
<path d="M19.735 54L0.495 8.5H13.495L21.88 29.495C22.27 30.535 22.66 31.5533 23.05 32.55C23.4833 33.5467 23.895 34.5867 24.285 35.67C24.7183 36.71 25.13 37.815 25.52 38.985C25.91 40.155 26.2567 41.455 26.56 42.885H24.22C24.6967 41.1083 25.195 39.505 25.715 38.075C26.235 36.645 26.755 35.28 27.275 33.98C27.795 32.6367 28.3583 31.1633 28.965 29.56L37.155 8.5H49.895L30.72 54H19.735ZM52.0832 54V19.355H64.1732V54H52.0832ZM58.1282 12.53C55.9615 12.53 54.2498 12.0317 52.9932 11.035C51.7798 9.995 51.1732 8.54333 51.1732 6.68C51.1732 4.94667 51.8015 3.53833 53.0582 2.455C54.3148 1.32833 56.0048 0.764996 58.1282 0.764996C60.3382 0.764996 62.0498 1.285 63.2632 2.325C64.5198 3.32167 65.1482 4.77333 65.1482 6.68C65.1482 8.41333 64.5198 9.82166 63.2632 10.905C62.0065 11.9883 60.2948 12.53 58.1282 12.53ZM86.6124 54.65C82.5824 54.65 79.0074 54.0867 75.8874 52.96C72.7674 51.8333 70.2757 50.295 68.4124 48.345L75.5624 42.105C76.9924 43.405 78.7691 44.4233 80.8924 45.16C83.0157 45.8533 85.1607 46.2 87.3274 46.2C87.9774 46.2 88.5841 46.1567 89.1474 46.07C89.7107 45.94 90.1874 45.7883 90.5774 45.615C90.9674 45.4417 91.2707 45.225 91.4874 44.965C91.7474 44.6617 91.8774 44.3367 91.8774 43.99C91.8774 43.34 91.4441 42.82 90.5774 42.43C89.9274 42.2133 89.0174 41.9967 87.8474 41.78C86.7207 41.52 85.4641 41.26 84.0774 41C81.7807 40.5667 79.7441 40.0683 77.9674 39.505C76.1907 38.8983 74.6741 38.14 73.4174 37.23C72.2907 36.32 71.4024 35.2367 70.7524 33.98C70.1024 32.7233 69.7774 31.2933 69.7774 29.69C69.7774 27.9567 70.2107 26.4183 71.0774 25.075C71.9874 23.6883 73.2007 22.5183 74.7174 21.565C76.2774 20.6117 78.0541 19.8967 80.0474 19.42C82.0407 18.9 84.0991 18.64 86.2224 18.64C88.4324 18.64 90.5557 18.835 92.5924 19.225C94.6724 19.615 96.6441 20.1783 98.5074 20.915C100.371 21.6517 102.017 22.605 103.447 23.775L97.4024 30.795C96.4491 30.145 95.3441 29.5383 94.0874 28.975C92.8307 28.3683 91.4657 27.87 89.9924 27.48C88.5191 27.09 87.0891 26.895 85.7024 26.895C85.0524 26.895 84.4457 26.9383 83.8824 27.025C83.3624 27.1117 82.9074 27.2417 82.5174 27.415C82.1707 27.5883 81.8891 27.805 81.6724 28.065C81.4557 28.325 81.3474 28.6067 81.3474 28.91C81.3041 29.3 81.3907 29.625 81.6074 29.885C81.8241 30.145 82.1057 30.3833 82.4524 30.6C83.0591 30.9467 83.9474 31.25 85.1174 31.51C86.2874 31.77 87.7824 32.095 89.6024 32.485C92.4191 33.0483 94.7807 33.72 96.6874 34.5C98.5941 35.2367 100.132 36.1033 101.302 37.1C102.082 37.8367 102.667 38.7033 103.057 39.7C103.491 40.6533 103.707 41.715 103.707 42.885C103.707 45.1383 102.971 47.1533 101.497 48.93C100.067 50.7067 98.0741 52.115 95.5174 53.155C93.0041 54.1517 90.0357 54.65 86.6124 54.65ZM120.119 54.715C117.302 54.715 114.876 54.1083 112.839 52.895C110.846 51.6817 109.307 49.9267 108.224 47.63C107.141 45.29 106.599 42.4733 106.599 39.18V19.355H118.689V37.685C118.689 39.2017 118.906 40.4583 119.339 41.455C119.772 42.4517 120.444 43.21 121.354 43.73C122.264 44.2067 123.391 44.445 124.734 44.445C125.687 44.445 126.576 44.315 127.399 44.055C128.266 43.7517 129.002 43.3183 129.609 42.755C130.259 42.1483 130.757 41.4767 131.104 40.74C131.494 39.96 131.689 39.0933 131.689 38.14V19.355H143.779V54H132.599L131.949 46.98L134.224 46.2C133.747 47.6733 132.837 49.0817 131.494 50.425C130.151 51.725 128.504 52.765 126.554 53.545C124.647 54.325 122.502 54.715 120.119 54.715ZM165.137 54.585C161.757 54.585 158.789 53.8267 156.232 52.31C153.676 50.7933 151.682 48.6917 150.252 46.005C148.822 43.275 148.107 40.155 148.107 36.645C148.107 33.0917 148.822 29.9717 150.252 27.285C151.682 24.5983 153.676 22.4967 156.232 20.98C158.832 19.42 161.844 18.64 165.267 18.64C167.174 18.64 168.929 18.8783 170.532 19.355C172.179 19.7883 173.587 20.4383 174.757 21.305C175.971 22.1283 176.967 23.0383 177.747 24.035C178.571 24.9883 179.177 26.0067 179.567 27.09L176.967 27.22V19.355H188.797V54H176.707V45.03L179.242 45.55C178.939 46.72 178.376 47.8467 177.552 48.93C176.772 50.0133 175.754 50.9883 174.497 51.855C173.241 52.6783 171.832 53.35 170.272 53.87C168.712 54.3467 167.001 54.585 165.137 54.585ZM168.517 44.64C170.251 44.64 171.746 44.3367 173.002 43.73C174.302 43.08 175.299 42.1483 175.992 40.935C176.686 39.7217 177.032 38.2917 177.032 36.645C177.032 34.9983 176.686 33.5683 175.992 32.355C175.299 31.1417 174.302 30.21 173.002 29.56C171.746 28.91 170.251 28.585 168.517 28.585C166.741 28.585 165.224 28.91 163.967 29.56C162.711 30.21 161.736 31.1417 161.042 32.355C160.392 33.5683 160.067 34.9983 160.067 36.645C160.067 38.2917 160.392 39.7217 161.042 40.935C161.736 42.1483 162.711 43.08 163.967 43.73C165.224 44.3367 166.741 44.64 168.517 44.64ZM196.958 54V5.9H209.048V54H196.958ZM236.767 54V43.275H246.517V19.225H236.767V8.5H269.072V19.225H259.387V43.275H269.072V54H236.767ZM290.017 54.715C286.724 54.715 283.821 53.9567 281.307 52.44C278.794 50.88 276.844 48.7567 275.457 46.07C274.071 43.34 273.377 40.22 273.377 36.71C273.377 33.2 274.092 30.1017 275.522 27.415C276.996 24.685 279.011 22.54 281.567 20.98C284.167 19.42 287.136 18.64 290.472 18.64C292.336 18.64 294.069 18.8783 295.672 19.355C297.276 19.7883 298.706 20.395 299.962 21.175C301.219 21.955 302.259 22.865 303.082 23.905C303.906 24.945 304.426 26.0283 304.642 27.155L301.847 27.935V5.9H314.002V54H303.017L302.172 45.745L304.577 46.395C304.404 47.5217 303.884 48.5833 303.017 49.58C302.194 50.5333 301.132 51.4 299.832 52.18C298.532 52.96 297.037 53.5667 295.347 54C293.657 54.4767 291.881 54.715 290.017 54.715ZM293.722 44.705C295.456 44.705 296.951 44.38 298.207 43.73C299.507 43.0367 300.482 42.105 301.132 40.935C301.826 39.765 302.172 38.3567 302.172 36.71C302.172 35.0633 301.826 33.6333 301.132 32.42C300.482 31.2067 299.507 30.2967 298.207 29.69C296.951 29.0833 295.456 28.78 293.722 28.78C291.989 28.78 290.472 29.0833 289.172 29.69C287.916 30.2967 286.941 31.2067 286.247 32.42C285.597 33.6333 285.272 35.0633 285.272 36.71C285.272 38.3567 285.597 39.765 286.247 40.935C286.941 42.105 287.916 43.0367 289.172 43.73C290.472 44.38 291.989 44.705 293.722 44.705ZM338.502 54.65C334.169 54.65 330.399 53.8917 327.192 52.375C324.029 50.815 321.58 48.6917 319.847 46.005C318.114 43.275 317.247 40.1767 317.247 36.71C317.247 34.0233 317.745 31.575 318.742 29.365C319.739 27.155 321.125 25.2483 322.902 23.645C324.679 22.0417 326.759 20.8067 329.142 19.94C331.525 19.0733 334.104 18.64 336.877 18.64C339.65 18.64 342.185 19.0733 344.482 19.94C346.779 20.7633 348.772 21.9767 350.462 23.58C352.152 25.1833 353.452 27.0683 354.362 29.235C355.315 31.4017 355.749 33.8067 355.662 36.45L355.597 39.245H324.657L323.162 32.875H345.912L344.742 34.435V33.2C344.699 32.2467 344.309 31.4017 343.572 30.665C342.879 29.9283 341.969 29.3433 340.842 28.91C339.715 28.4767 338.48 28.26 337.137 28.26C335.404 28.26 333.887 28.5417 332.587 29.105C331.287 29.625 330.247 30.4483 329.467 31.575C328.73 32.7017 328.362 34.0883 328.362 35.735C328.362 37.4683 328.817 38.985 329.727 40.285C330.68 41.585 332.024 42.6033 333.757 43.34C335.534 44.0767 337.657 44.445 340.127 44.445C342.207 44.445 343.919 44.2283 345.262 43.795C346.649 43.3183 347.862 42.755 348.902 42.105L354.297 49.775C352.694 50.9017 351.025 51.8333 349.292 52.57C347.559 53.3067 345.804 53.8267 344.027 54.13C342.25 54.4767 340.409 54.65 338.502 54.65ZM360.383 54V19.355H371.628L372.213 27.415L369.353 28.195C369.873 26.4617 370.805 24.88 372.148 23.45C373.492 21.9767 375.16 20.8067 377.153 19.94C379.147 19.0733 381.335 18.64 383.718 18.64C386.622 18.64 389.092 19.225 391.128 20.395C393.208 21.565 394.768 23.2333 395.808 25.4C396.848 27.5233 397.368 30.0583 397.368 33.005V54H385.278V34.825C385.278 33.4817 385.04 32.355 384.563 31.445C384.087 30.535 383.372 29.8417 382.418 29.365C381.508 28.845 380.425 28.585 379.168 28.585C378.085 28.585 377.132 28.7583 376.308 29.105C375.485 29.4517 374.792 29.9283 374.228 30.535C373.665 31.0983 373.232 31.7483 372.928 32.485C372.625 33.1783 372.473 33.8933 372.473 34.63V54H366.428C364.738 54 363.395 54 362.398 54C361.402 54 360.73 54 360.383 54ZM407.938 54V9.8H420.028V54H407.938ZM400.658 29.625V19.355H428.153V29.625H400.658ZM433.534 54V19.355H445.624V54H433.534ZM439.579 12.53C437.412 12.53 435.701 12.0317 434.444 11.035C433.231 9.995 432.624 8.54333 432.624 6.68C432.624 4.94667 433.252 3.53833 434.509 2.455C435.766 1.32833 437.456 0.764996 439.579 0.764996C441.789 0.764996 443.501 1.285 444.714 2.325C445.971 3.32167 446.599 4.77333 446.599 6.68C446.599 8.41333 445.971 9.82166 444.714 10.905C443.457 11.9883 441.746 12.53 439.579 12.53ZM457.338 54V9.8H469.428V54H457.338ZM450.058 29.625V19.355H477.553V29.625H450.058ZM486.119 68.95L495.674 49.32L495.349 54.585L477.279 19.355H491.059L498.469 35.15C498.989 36.2767 499.487 37.425 499.964 38.595C500.441 39.7217 500.852 40.9133 501.199 42.17L498.924 42.82C499.314 41.9533 499.747 40.9133 500.224 39.7C500.744 38.4867 501.221 37.295 501.654 36.125L508.739 19.355H522.454L505.164 54.13L498.144 68.95H486.119Z" fill="white"/>
</svg>
